<svg id="Layer_1" data-name="Layer 1" xmlns="http://www.w3.org/2000/svg" viewBox="0 0 176 40"><defs><style>.cls-1{fill:#fff;}.cls-2{fill:none;}</style></defs><path class="cls-1" d="M41.88,9.8H28.94a2.58,2.58,0,0,0,0,5.15h7.43L27,26.14h0A2.56,2.56,0,0,0,27.57,30a2.52,2.52,0,0,0,1.39.39H41.88a2.58,2.58,0,0,0,0-5.14H34.45L43.85,14h0l0,0a2.59,2.59,0,0,0-.42-3.63A2.55,2.55,0,0,0,41.88,9.8Z"/><path class="cls-1" d="M73.22,29.39l0,0,0,0v0l0,0,.08-.1v0h0v0l.08-.12v0h0l0,0s0-.11.08-.17L80.93,13.5a2.58,2.58,0,0,0-4.46-2.6,3,3,0,0,0-.17.36L71.19,21.87l-5.1-10.6a2.58,2.58,0,0,0-4.62-.08h0l0,0L56.33,21.87h0l-5.11-10.6a2.58,2.58,0,0,0-4.75,2,1.51,1.51,0,0,0,.11.22L54,28.9h0A2.57,2.57,0,0,0,54.92,30h0L55,30h0a2.59,2.59,0,0,0,1.25.33,2.07,2.07,0,0,0,.35,0,1.84,1.84,0,0,1-.33,0,2.62,2.62,0,0,0,1.95-.91l0,0,0,0,.05-.06,0,0,0,0,0,0h0v0a.44.44,0,0,0,.08-.11v0h0l0,0,.07-.11v0h0l.09-.16,5.1-10.61h0l5,10.41v0h0l.1.2,0,.05s0,0,0,0h0a2.07,2.07,0,0,0,.19.32l0,0,0,0,.06.07,0,0v0l0,.05,0,0,0,0,0,0,.06.06,0,0,.07.07h0l.07.08v0l0,0,0,0,0,0,0,0,.06.05h0l0,0h0l.06,0h0l0,0,0,0,0,0,0,0,0,0,0,0h0l.06,0h0l.07,0h0l.15.07h0a2.65,2.65,0,0,0,1,.22h0a2.51,2.51,0,0,0,.55-.06,2.6,2.6,0,0,0,1.38-.81l0,0s0,0,0,0l.07-.08Zm-16.5.95Zm14.87,0Zm-.13,0h0Z"/><path class="cls-1" d="M86.2,9.81a2.56,2.56,0,0,0-2.56,2.56h0V27.82h0a2.56,2.56,0,0,0,5.12,0V12.37A2.56,2.56,0,0,0,86.2,9.81Z"/><path class="cls-1" d="M123.9,16.16h0a2.45,2.45,0,0,0,3.28-3.65h0c-6.67-6-17.6-1.42-17.6,7.58h0a10,10,0,0,0,.84,4,10.32,10.32,0,0,0,3.81,4.51,10.63,10.63,0,0,0,5.84,1.75h0a10.87,10.87,0,0,0,3.79-.69,10.5,10.5,0,0,0,3.18-1.9h0A2.45,2.45,0,1,0,124,24a1.54,1.54,0,0,0-.19.17,5.57,5.57,0,0,1-1.63,1A5.75,5.75,0,0,1,117.9,25a5.47,5.47,0,0,1-2.46-2,5.31,5.31,0,0,1-.69-1.39,5.07,5.07,0,0,1-.24-1.59C114.49,15.36,120.36,13,123.9,16.16Z"/><path class="cls-1" d="M100.14,30.38A2.41,2.41,0,0,1,97.72,28V14.55H92.91a2.3,2.3,0,0,1-2.34-2.28v-.06a2.33,2.33,0,0,1,.66-1.66,2.27,2.27,0,0,1,1.68-.71h14.47a2.37,2.37,0,0,1,2.37,2.36h0a2.28,2.28,0,0,1-.71,1.68,2.34,2.34,0,0,1-1.66.66H102.6V28a2.33,2.33,0,0,1-.74,1.73A2.44,2.44,0,0,1,100.14,30.38Z"/><path class="cls-1" d="M147.13,30.38a2.46,2.46,0,0,1-2.47-2.44V22.35h-9.19V27.9a2.4,2.4,0,0,1-.74,1.77,2.5,2.5,0,0,1-1.76.7,2.46,2.46,0,0,1-2.47-2.44V12.29a2.5,2.5,0,0,1,.71-1.75A2.34,2.34,0,0,1,133,9.79a2.5,2.5,0,0,1,2.5,2.5v5.27h9.19V12.29a2.48,2.48,0,0,1,.71-1.75,2.37,2.37,0,0,1,1.76-.75,2.5,2.5,0,0,1,2.5,2.5V27.9a2.4,2.4,0,0,1-.74,1.77A2.55,2.55,0,0,1,147.13,30.38Z"/><rect class="cls-2" width="176" height="40"/></svg>